<?xml version="1.0" encoding="utf-8"?>
<!-- Generator: Adobe Illustrator 23.1.0, SVG Export Plug-In . SVG Version: 6.00 Build 0)  -->
<svg version="1.1" id="Layer_1" xmlns="http://www.w3.org/2000/svg" xmlns:xlink="http://www.w3.org/1999/xlink" x="0px" y="0px"
	 viewBox="0 0 1200 1200" enable-background="new 0 0 1200 1200" xml:space="preserve">
<path fill="#162456" d="M1149.851,923.571c0-7.43,0.062-14.859-0.017-22.288c-0.079-7.426,0.134-14.892-0.575-22.264
	c-0.756-7.855-0.995-15.69-1.028-23.555c-0.062-14.422-0.137-28.843-0.178-43.265c-0.292-100.952-0.573-201.905-0.875-302.857
	c-0.017-5.68,0.283-11.416-0.389-17.026c-1.254-10.461-1.16-20.934-1.199-31.416c-0.072-19.229-0.047-38.458-0.137-57.687
	c-0.252-53.753-0.534-107.507-0.833-161.26c-0.021-3.927-0.11-7.868-0.471-11.774c-0.265-2.855-2.215-4.77-4.833-5.685
	c-5.546-1.938-11.155-1.897-16.678,0.164c-3.116,1.164-5.05,3.46-5.406,6.793c-0.325,3.034-0.498,6.095-0.536,9.146
	c-0.088,6.991,0.017,13.986-0.1,20.976c-0.052,3.045-0.326,6.103-0.744,9.121c-0.374,2.698-1.785,4.947-4.116,6.417
	c-1.838,1.159-3.766,2.218-5.757,3.081c-3.188,1.381-7.295-0.278-8.692-3.721c-0.965-2.379-1.763-4.983-1.878-7.52
	c-0.316-6.981-0.19-13.98-0.324-20.971c-0.075-3.927-0.229-7.858-0.515-11.774c-0.198-2.711-2.485-4.974-4.997-5.309
	c-7.151-0.954-13.916,0.449-20.347,3.519c-2.073,0.99-3.269,2.936-3.512,5.219c-0.275,2.598-0.369,5.224-0.386,7.839
	c-0.051,7.866,0.016,15.733-0.053,23.599c-0.026,3.053-0.15,6.12-0.494,9.15c-0.314,2.758-1.897,4.873-4.359,6.169
	c-3.861,2.033-7.933,3.706-11.644,5.977c-10.467,6.406-21.443,11.892-32.664,16.684c-15.3,6.535-29.927,14.375-44.879,21.578
	c-10.655,5.133-20.653,11.35-30.555,17.799c-10.372,6.755-19.289,14.968-27.142,24.474c-3.61,4.369-7.41,8.608-11.404,12.627
	c-14.784,14.876-29.799,29.519-44.274,44.702c-3.946,4.139-7.353,8.576-10.392,13.426c-5.822,9.288-10.746,19.039-15.224,28.995
	c-2.888,6.421-7.483,10.59-13.761,13.243c-2.414,1.02-4.814,2.076-7.262,3.007c-8.982,3.417-18.083,6.544-26.947,10.242
	c-10.253,4.277-20.858,6.334-31.902,6.484c-16.222,0.221-32.193,2.589-48.079,5.67c-3.86,0.749-7.697,1.629-11.575,2.267
	c-23.707,3.902-47.511,7.148-71.325,10.308c-5.195,0.689-10.434,1.033-15.643,1.628c-3.565,0.408-6.971-0.096-10.272-1.418
	c-1.622-0.649-3.204-1.398-4.811-2.084c-16.431-7.012-33.564-9.284-51.288-7.602c-7.823,0.743-15.655,1.403-23.475,2.184
	c-3.473,0.347-6.922,0.918-10.386,1.357c-9.966,1.263-19.935,2.5-29.9,3.768c-15.587,1.983-31.238,3.582-46.309,8.453
	c-2.888,0.933-5.959,1.616-8.978,1.769c-11.083,0.561-21.489,3.523-31.571,8.001c-5.617,2.495-11.566,4.129-17.682,4.678
	c-15.26,1.369-30.504,1.767-45.732-0.816c-6.005-1.019-12.143-1.479-18.238-1.685c-6.98-0.236-13.981,0.046-20.971,0.192
	c-7.878,0.165-15.663,0.981-23.395,2.694c-12.367,2.741-24.805,5.169-37.233,7.626c-16.28,3.219-32.348,7.526-48.854,9.582
	c-6.067,0.756-12.212,1.057-18.21,2.168c-13.051,2.419-26.065,2.037-39.153,0.561c-5.632-0.635-11.32-0.777-16.983-1.147
	c-5.902-0.386-11.215,0.923-15.821,4.913c-1.615,1.4-3.932,1.972-5.615,3.315c-5.761,4.598-12.014,8.727-15.25,15.82
	c-2.048,4.49-5.361,7.929-9.673,10.378c-0.758,0.431-1.491,0.91-2.208,1.408c-2.752,1.913-3.998,4.595-3.694,7.891
	c0.281,3.038,0.459,6.141,1.239,9.067c1.675,6.283,3.79,12.444,4.835,18.895c0.205,1.272,0.888,2.46,1.295,3.706
	c0.979,3,2.796,5.324,5.225,7.354c11.204,9.365,23.803,14.463,38.629,13.026c3.477-0.337,7.042-0.3,10.416-1.085
	c14.096-3.282,28.483-4.36,42.799-5.987c5.662-0.643,11.335-0.769,16.997,0.056c11.237,1.638,22.457,3.315,33.609,5.538
	c31.269,6.233,62.592,12.189,94.284,15.952c13.951,1.657,27.934,1.658,41.834-0.067c7.09-0.88,13.935-0.729,20.771,1.05
	c4.224,1.099,8.45,2.259,12.556,3.723c11.526,4.109,23.029,8.235,35.181,10.185c2.224,0.357,4.022,1.629,5.212,3.617
	c0.449,0.749,0.925,1.494,1.268,2.292c2.271,5.276,6.608,8.025,11.867,9.453c3.353,0.91,6.79,1.609,10.235,2.048
	c3.022,0.385,6.105,0.315,9.163,0.381c12.226,0.263,24.482-0.119,36.629,1.804c1.285,0.203,2.648,0.33,3.92,0.136
	c7.865-1.197,15.687-0.142,23.522,0.306c22.749,1.303,45.421,0.21,68.032-2.357c2.988-0.339,5.97-1.222,8.807-2.259
	c2.509-0.917,4.968-1.739,7.632-1.369c12.608,1.751,25.297,1.239,37.961,1.495c11.382,0.23,22.617,1.68,33.739,4.228
	c12.771,2.926,25.581,5.711,38.442,8.203c11.556,2.24,22.983,5.363,34.892,5.526c2.11,0.029,4.31,0.824,6.29,1.678
	c10.021,4.322,19.983,8.781,29.966,13.192c5.508,4.972,11.023,9.937,16.52,14.922c1.294,1.174,2.508,2.436,3.791,3.623
	c10.97,10.145,23.169,18.744,36.17,25.884c25.384,13.939,52.908,22.774,80.285,31.847c0.411,0.136,0.854,0.193,1.287,0.245
	c3.587,0.429,6.632,2.062,9.474,4.188c11.194,8.372,22.426,16.694,33.589,25.108c5.603,4.222,11.348,8.155,17.927,10.744
	c15.854,6.239,31.599,12.771,48.146,17.066c11.886,3.085,23.042,8.153,34.352,12.812c4.354,1.793,7.043,4.902,8.994,9.009
	c2.676,5.63,3.968,11.552,4.144,17.737c0.124,4.368,0.036,8.743,0.217,13.108c0.422,10.154,3.365,13.278,13.212,14.127
	c1.731,0.149,3.491,0.092,5.23,0.001c3.923-0.206,6.679-2.668,6.998-6.474c0.365-4.349,0.313-8.738,0.808-13.068
	c0.239-2.09,1.227-4.121,2.047-6.107c0.52-1.26,3.214-2.505,4.425-2.308c5.569,0.904,12.302,5.888,12.303,13.301
	c0.002,9.613,0.163,19.226,0.283,28.839c0.048,3.932,0.107,7.865,0.277,11.792c0.142,3.268,1.775,5.798,4.342,7.731
	c6.271,4.723,13.304,6.334,21.032,5.111c3.673-0.581,6.298-3.256,6.549-7.085c0.229-3.484,0.277-6.985,0.287-10.479
	c0.032-11.8,0.012-23.599,0.012-35.399C1149.946,923.571,1149.899,923.571,1149.851,923.571z M282.757,609.842
	c-1.186,0.48-2.512,0.664-3.798,0.841c-3.881,0.533-7.774,0.981-11.658,1.5c-12.509,1.671-24.938,3.919-37.62,4.229
	c-5.633,0.138-11.232,1.365-16.867,1.86c-5.203,0.457-10.434,0.596-15.652,0.875c-9.617,0.683-19.073,0.284-28.516-2.197
	c-6.328-1.663-13.008-1.599-19.475-0.346c-5.235,1.014-10.328,0.793-15.561,0.121c-9.498-1.219-19.045-2.043-28.567-3.075
	c-1.285-0.139-2.611-0.365-3.787-0.861c-0.63-0.266-1.352-1.189-1.359-1.824c-0.008-0.71,0.571-1.766,1.196-2.089
	c5.54-2.871,11.649-3.504,17.714-3.873c4.321-0.263,8.712,0.016,13.031,0.455c8.228,0.836,16.436,1.883,24.631,2.999
	c3.674,0.5,7.096-0.127,9.882-2.377c7.225-5.834,15.547-7.046,24.506-7.156c25.741-0.314,51.378,0.769,76.858,4.571
	c5.133,0.766,10.533,0.025,15.354,2.518c0.615,0.318,1.204,1.384,1.163,2.065C284.192,608.712,283.412,609.577,282.757,609.842z
	 M331.241,614.31c-0.655,0.481-1.578,0.766-2.405,0.82c-7.822,0.506-15.444-0.837-22.98-2.732c-0.644-0.162-1.156-1.121-1.584-1.801
	c-0.546-0.868,0.723-2.481,2.092-2.78c0.839-0.183,1.657-0.525,2.503-0.603c2.146-0.198,4.302-0.287,7.996-0.515
	c2.766,0.444,7.021,1.047,11.236,1.853c1.224,0.234,2.438,0.911,3.461,1.654c0.575,0.418,1.074,1.415,1.014,2.099
	C332.511,613.022,331.867,613.851,331.241,614.31z M1070.361,831.771c-0.007,4.339-0.439,8.686-0.853,13.013
	c-0.193,2.015-2.954,3.738-4.961,3.263c-2.112-0.5-4.261-0.974-6.266-1.778c-5.674-2.277-11.193-4.966-16.937-7.04
	c-10.801-3.901-20.497-9.688-29.706-16.427c-7.756-5.675-15.358-11.604-23.436-16.783c-11.366-7.287-22.154-15.596-34.89-20.622
	c-2.38-0.939-4.847-2.318-6.572-4.153c-9.915-10.55-21.609-19.042-32.707-28.177c-7.035-5.791-15.205-10.212-22.925-15.157
	c-2.2-1.41-4.675-2.387-6.903-3.759c-15.634-9.634-13.64-8.552-20.652-20.999c-3.858-6.849-7.948-13.57-12.071-20.264
	c-1.899-3.082-3.01-6.261-2.713-9.902c0.354-4.353,0.572-8.72,1.025-13.062c0.178-1.714,0.795-3.39,1.277-5.064
	c0.401-1.391,2.881-3.014,4.137-2.62c9.959,3.127,20.129,5.712,28.057,13.29c2.131,2.037,5.031,3.505,7.833,4.543
	c3.657,1.354,7.554,2.778,11.371,2.843c12.249,0.21,24.322,2.536,36.543,2.719c12.937,0.193,25.012-3.363,36.441-9.229
	c4.737-2.431,8.525-6.105,11.905-10.136c1.373-1.638,2.482-3.624,3.237-5.631c3.419-9.09,5.212-18.479,4.579-28.24
	c-0.084-1.305-0.059-2.674-0.454-3.894c-4.023-12.394-10.201-23.285-22.281-29.503c-8.554-4.403-17.465-7.951-27.001-9.828
	c-5.959-1.173-11.761-2.669-17.463-5.23c-7.746-3.481-16.434-3.279-24.326-0.26c-6.705,2.565-13.383,3.638-20.421,3.867
	c-3.907,0.127-7.784,1.024-11.691,1.403c-1.708,0.166-3.485,0.072-5.181-0.211c-1.79-0.299-3.436-1.383-3.865-3.148
	c-1.751-7.201-3.397-14.434-4.85-21.701c-0.527-2.634,0.377-5.26,1.88-7.465c1.718-2.521,3.744-4.83,5.588-7.268
	c9.311-12.31,16.703-25.583,20.231-40.758c2.613-11.242,7.329-21.363,14.743-30.349c8.069-9.781,15.192-20.268,21.301-31.416
	c3.392-6.191,8.071-11.494,12.984-16.398c6.785-6.772,14.039-13.128,21.521-19.127c5.463-4.38,10.891-8.738,15.81-13.727
	c10.12-10.265,20.072-20.648,29.448-31.644c7.907-9.275,16.915-17.662,25.858-25.989c7.177-6.682,16.288-10.044,25.625-12.633
	c1.229-0.341,2.597-0.296,3.895-0.257c3.963,0.118,7.775,3.218,8.414,6.999c1.312,7.766,1.923,15.583,1.941,23.478
	c0.08,34.954,0.286,69.908,0.452,104.861c0.169,35.391,0.289,70.782,0.563,106.172c0.057,7.413,0.732,14.82,1.058,22.232
	c0.231,5.235,0.498,10.474,0.505,15.712c0.043,36.702,0.023,73.404,0.023,110.106c0.305,0,0.611,0,0.917,0
	C1070.398,754.872,1070.425,793.322,1070.361,831.771z M1117.205,859.573c-0.001,4.365-0.003,8.739-0.264,13.093
	c-0.1,1.671-0.787,3.36-1.485,4.917c-0.297,0.663-1.364,1.472-1.978,1.394c-1.161-0.147-2.819-0.595-3.249-1.438
	c-0.954-1.876-1.57-4.042-1.797-6.146c-0.445-4.134-1.925-7.622-5.294-10.124c-3.917-2.909-4.916-7.026-4.996-11.548
	c-0.077-4.366-0.112-8.733-0.121-13.1c-0.241-115.731-0.475-231.462-0.712-347.193c-0.018-8.732,0.076-17.456-1.083-26.156
	c-0.516-3.874-0.387-7.845-0.4-11.773c-0.118-33.627-0.217-67.255-0.275-100.882c-0.008-4.362,0.102-8.736,0.439-13.083
	c0.205-2.64,1.132-5.317,3.462-6.797c4.991-3.17,8.219-7.659,10.735-12.851c0.262-0.539,1.543-0.928,2.25-0.806
	c0.67,0.116,1.643,0.935,1.729,1.551c0.424,3.009,0.792,6.051,0.822,9.085c0.12,12.227,0.012,24.457,0.185,36.684
	c0.086,6.102,0.634,12.197,0.903,18.298c0.25,5.668,0.575,11.34,0.578,17.01c0.038,76.426,0.025,152.852,0.025,229.278
	c0.178,0,0.356,0,0.533,0C1117.214,705.847,1117.218,782.71,1117.205,859.573z"/>
</svg>
